<?xml version="1.0" encoding="utf-8"?>
<!-- Generator: Adobe Illustrator 17.0.0, SVG Export Plug-In . SVG Version: 6.00 Build 0)  -->
<!DOCTYPE svg PUBLIC "-//W3C//DTD SVG 1.1//EN" "http://www.w3.org/Graphics/SVG/1.1/DTD/svg11.dtd">
<svg version="1.1" id="Layer_1" xmlns="http://www.w3.org/2000/svg" xmlns:xlink="http://www.w3.org/1999/xlink" x="0px" y="0px"
	 width="50px" height="50px" viewBox="0 0 50 50" enable-background="new 0 0 50 50" xml:space="preserve">
<g>
	<path d="M1,39c0-9,0-18,0-27C3.072,6.23,7.06,2.55,13,1c8.667,0,17.333,0,26,0c6.348,1.652,10.28,5.72,12,12c0,8.667,0,17.333,0,26
		c-1.641,5.856-5.303,9.861-11,12c-9.333,0-18.667,0-28,0C6.393,48.779,2.681,44.82,1,39z M26.122,44.998
		c3.495,0,7,0.165,10.483-0.037c5.892-0.341,8.593-2.732,8.898-8.617c0.362-6.968,0.402-13.982,0.052-20.95
		c-0.298-5.935-2.815-8.55-8.762-8.832c-7.462-0.355-14.965-0.116-22.439,0.164c-4.886,0.183-7.76,3.158-7.932,7.975
		C6.16,22.01,6.067,29.349,6.433,36.649c0.276,5.519,3.092,7.953,8.707,8.308C18.787,45.187,22.46,45,26.122,44.998z"/>
	<path fill="#FFFFFF" d="M51,13C49.28,6.72,45.348,2.652,39,1c3.918,0,7.837,0,12,0C51,4.997,51,8.998,51,13z"/>
	<path fill="#FFFFFF" d="M13,1C7.06,2.55,3.072,6.23,1,12C1,8.411,1,4.823,1,1C4.998,1,8.999,1,13,1z"/>
	<path fill="#FFFFFF" d="M1,39c1.681,5.82,5.393,9.779,11,12c-3.667,0-7.333,0-11,0C1,47,1,43,1,39z"/>
	<path fill="#FFFFFF" d="M40,51c5.697-2.139,9.359-6.144,11-12c0,4,0,8,0,12C47.333,51,43.667,51,40,51z"/>
	<path fill="#FFFFFF" d="M26.121,44.999C22.46,45,18.787,45.187,15.14,44.957c-5.615-0.355-8.431-2.789-8.707-8.308
		c-0.365-7.3-0.273-14.639-0.011-21.948c0.173-4.818,3.047-7.792,7.932-7.975c7.474-0.281,14.977-0.519,22.439-0.164
		c5.947,0.283,8.464,2.897,8.762,8.832c0.35,6.968,0.309,13.982-0.052,20.95c-0.305,5.885-3.006,8.276-8.898,8.617
		C33.121,45.163,29.617,44.998,26.121,44.999z M38.119,26.467c-0.013-6.824-5.58-12.511-12.219-12.483
		c-6.705,0.028-12.203,5.636-12.234,12.477c-0.031,6.833,5.464,12.422,12.216,12.426C32.635,38.892,38.132,33.312,38.119,26.467z"/>
	<path d="M38.119,26.467c0.013,6.846-5.484,12.425-12.237,12.421c-6.753-0.004-12.247-5.593-12.216-12.426
		c0.031-6.841,5.53-12.449,12.234-12.477C32.539,13.956,38.106,19.643,38.119,26.467z M32.946,26.676
		c0.115-3.694-2.975-7.176-6.599-7.435c-3.835-0.275-7.346,3.027-7.47,7.026c-0.124,3.997,3.138,7.431,7.048,7.419
		C29.571,33.675,32.829,30.423,32.946,26.676z"/>
	<path fill="#FFFFFF" d="M32.946,26.676c-0.117,3.746-3.375,6.999-7.021,7.01c-3.91,0.012-7.173-3.422-7.048-7.419
		c0.124-3.999,3.635-7.301,7.47-7.026C29.971,19.501,33.061,22.982,32.946,26.676z"/>
</g>
</svg>
